<svg xmlns="http://www.w3.org/2000/svg" viewBox="0 0 512 512" role="img" aria-labelledby="title desc">
  <title id="title">AxonRouter Concept B</title>
  <desc id="desc">Integrated folded route mark shaped from continuous paths.</desc>
  <defs>
    <linearGradient id="bg" x1="76" y1="44" x2="436" y2="468" gradientUnits="userSpaceOnUse">
      <stop offset="0" stop-color="#FB7185"/>
      <stop offset="0.36" stop-color="#EC4899"/>
      <stop offset="0.76" stop-color="#D946EF"/>
      <stop offset="1" stop-color="#38BDF8"/>
    </linearGradient>
    <linearGradient id="mark" x1="150" y1="116" x2="366" y2="392" gradientUnits="userSpaceOnUse">
      <stop stop-color="#FFFFFF"/>
      <stop offset="1" stop-color="#FFF1F7"/>
    </linearGradient>
    <filter id="shadow" x="-20%" y="-20%" width="140%" height="140%">
      <feDropShadow dx="0" dy="10" stdDeviation="14" flood-color="#9D174D" flood-opacity="0.22"/>
    </filter>
  </defs>
  <rect width="512" height="512" rx="118" fill="url(#bg)"/>
  <path d="M91 133c44-62 127-87 206-61 79 26 133 93 140 168 2 22-23 34-40 20-48-40-95-60-144-60-55 0-104 24-147 71-18 20-51 2-40-23 8-19 11-73 25-115Z" fill="#fff" opacity="0.16"/>
  <g filter="url(#shadow)" fill="none" stroke="url(#mark)" stroke-width="42" stroke-linecap="round" stroke-linejoin="round">
    <path d="M156 356V174c0-20 16-36 36-36h84c52 0 86 31 86 76 0 46-34 78-86 78h-82"/>
    <path d="M196 292l136 82"/>
    <path d="M260 214h75" opacity="0.72"/>
  </g>
  <g fill="#fff">
    <circle cx="156" cy="356" r="22"/>
    <circle cx="156" cy="174" r="22"/>
    <circle cx="362" cy="214" r="22"/>
    <circle cx="332" cy="374" r="22"/>
  </g>
  <circle cx="260" cy="214" r="17" fill="#DB2777" opacity="0.86"/>
</svg>
