<svg xmlns="http://www.w3.org/2000/svg" aria-labelledby="title desc" role="img" viewBox="0 0 512 512"><title id="title">AxonRouter Concept C</title><desc id="desc">Integrated gateway loop with negative-space route center.</desc><defs><linearGradient id="bg" x1="78" x2="432" y1="40" y2="472" gradientUnits="userSpaceOnUse"><stop offset="0" stop-color="#F9A8D4"/><stop offset=".36" stop-color="#EC4899"/><stop offset=".78" stop-color="#DB2777"/><stop offset="1" stop-color="#60A5FA"/></linearGradient><linearGradient id="mark" x1="140" x2="372" y1="118" y2="396" gradientUnits="userSpaceOnUse"><stop stop-color="#FFF"/><stop offset="1" stop-color="#FFE4F1"/></linearGradient><mask id="cut"><rect width="512" height="512" fill="#fff"/><path fill="#000" d="M236 210l96 46-96 46z"/><circle cx="256" cy="256" r="16" fill="#000"/></mask></defs><rect width="512" height="512" fill="url(#bg)" rx="126"/><path fill="#fff" d="M118 404C76 319 87 212 151 142c59-64 150-86 226-50 22 11 19 42-4 49-76 24-133 65-173 124-33 49-52 99-58 151-3 25-14 22-24-12Z" opacity=".14"/><g mask="url(#cut)"><path fill="none" stroke="url(#mark)" stroke-linecap="round" stroke-width="46" d="M256 127c76 0 132 52 132 122 0 76-60 136-136 136h-83"/><path fill="none" stroke="#fff" stroke-linecap="round" stroke-width="46" d="M169 385c-34 0-61-27-61-61s27-61 61-61h176" opacity=".92"/></g><circle cx="256" cy="127" r="25" fill="#fff"/><circle cx="388" cy="249" r="25" fill="#fff"/><circle cx="169" cy="385" r="25" fill="#fff"/><circle cx="345" cy="263" r="18" fill="#fff" opacity=".8"/></svg>