<svg xmlns="http://www.w3.org/2000/svg" aria-labelledby="title desc" role="img" viewBox="0 0 512 512"><title id="title">AxonRouter Concept B</title><desc id="desc">Integrated folded route mark shaped from continuous paths.</desc><defs><linearGradient id="bg" x1="76" x2="436" y1="44" y2="468" gradientUnits="userSpaceOnUse"><stop offset="0" stop-color="#FB7185"/><stop offset=".36" stop-color="#EC4899"/><stop offset=".76" stop-color="#D946EF"/><stop offset="1" stop-color="#38BDF8"/></linearGradient><linearGradient id="mark" x1="150" x2="366" y1="116" y2="392" gradientUnits="userSpaceOnUse"><stop stop-color="#FFF"/><stop offset="1" stop-color="#FFF1F7"/></linearGradient><filter id="shadow" width="140%" height="140%" x="-20%" y="-20%"><feDropShadow dx="0" dy="10" flood-color="#9D174D" flood-opacity=".22" stdDeviation="14"/></filter></defs><rect width="512" height="512" fill="url(#bg)" rx="118"/><path fill="#fff" d="M91 133c44-62 127-87 206-61 79 26 133 93 140 168 2 22-23 34-40 20-48-40-95-60-144-60-55 0-104 24-147 71-18 20-51 2-40-23 8-19 11-73 25-115Z" opacity=".16"/><g fill="none" stroke="url(#mark)" stroke-linecap="round" stroke-linejoin="round" stroke-width="42" filter="url(#shadow)"><path d="M156 356V174c0-20 16-36 36-36h84c52 0 86 31 86 76 0 46-34 78-86 78h-82"/><path d="M196 292l136 82"/><path d="M260 214h75" opacity=".72"/></g><g fill="#fff"><circle cx="156" cy="356" r="22"/><circle cx="156" cy="174" r="22"/><circle cx="362" cy="214" r="22"/><circle cx="332" cy="374" r="22"/></g><circle cx="260" cy="214" r="17" fill="#DB2777" opacity=".86"/></svg>