<svg width="48" height="48" viewBox="0 0 48 48" fill="none" xmlns="http://www.w3.org/2000/svg">
<path d="M16.5586 6C17.4193 6.00005 18.1838 6.55068 18.4561 7.36719L19.5439 10.6328C19.8162 11.4493 20.5807 12 21.4414 12H26.5586C27.4193 12 28.1838 11.4493 28.4561 10.6328L29.5439 7.36719C29.8162 6.55068 30.5807 6.00005 31.4414 6H34.5586C35.4193 6.00005 36.1838 6.55068 36.4561 7.36719L37.6523 10.958C37.8686 11.6067 38.402 12.1008 39.0654 12.2666L44.4854 13.6211C45.3756 13.8438 46 14.6439 46 15.5615V32.4385C46 33.3561 45.3756 34.1562 44.4854 34.3789L39.0654 35.7334C38.402 35.8992 37.8686 36.3933 37.6523 37.042L36.4561 40.6328C36.1838 41.4493 35.4193 42 34.5586 42H31.4414C30.5807 42 29.8162 41.4493 29.5439 40.6328L28.8779 38.6328C28.4463 37.3379 29.4095 36.0003 30.7744 36H36C37.1046 36 38 35.1046 38 34V14C38 12.8954 37.1046 12 36 12H30C28.8954 12 28 12.8954 28 14V28C28 29.1046 27.1046 30 26 30H22C20.8954 30 20 29.1046 20 28V14C20 12.8954 19.1046 12 18 12H12C10.8954 12 10 12.8954 10 14V34C10 35.1046 10.8954 36 12 36H17.2256C18.5905 36.0003 19.5537 37.3379 19.1221 38.6328L18.4561 40.6328C18.1838 41.4493 17.4193 42 16.5586 42H13.4414C12.5807 42 11.8162 41.4493 11.5439 40.6328L10.3477 37.042C10.1314 36.3933 9.59795 35.8992 8.93457 35.7334L3.51465 34.3789C2.62444 34.1562 2.00001 33.3561 2 32.4385V15.5615C2.00001 14.6439 2.62444 13.8438 3.51465 13.6211L8.93457 12.2666C9.59795 12.1008 10.1314 11.6067 10.3477 10.958L11.5439 7.36719C11.8162 6.55068 12.5807 6.00005 13.4414 6H16.5586Z" fill="#99D52A"/>
</svg>
